<svg version="1.1" xmlns="http://www.w3.org/2000/svg" viewBox="0 0 712.2083129882812 1005" width="712.2083129882812" height="1005">
  <!-- svg-source:excalidraw -->
  
  <defs>
    <style class="style-fonts">
      @font-face {
        font-family: "Virgil";
        src: url("https://excalidraw.com/Virgil.woff2");
      }
      @font-face {
        font-family: "Cascadia";
        src: url("https://excalidraw.com/Cascadia.woff2");
      }
    </style>
  </defs>
  <rect x="0" y="0" width="712.2083129882812" height="1005" fill="#ffffff"></rect><g stroke-linecap="round" transform="translate(10 44) rotate(0 152 169)"><path d="M32 0 M32 0 C86.27 -0.76, 140.79 1.88, 272 0 M32 0 C117.58 1.93, 204.39 1.01, 272 0 M272 0 C292.74 0.51, 305.64 11.28, 304 32 M272 0 C295.13 -1.22, 303.34 9.69, 304 32 M304 32 C304.29 130.9, 302.05 226.62, 304 306 M304 32 C305.26 125.75, 304.93 220.25, 304 306 M304 306 C305.42 325.63, 294.24 336.38, 272 338 M304 306 C305.95 328.01, 292.78 336.08, 272 338 M272 338 C191.64 336.55, 109.4 339.34, 32 338 M272 338 C181.22 338.44, 89.8 337.77, 32 338 M32 338 C9.69 336.94, 1.58 327.32, 0 306 M32 338 C10.25 339, -2.21 325.16, 0 306 M0 306 C-0.98 229.98, -0.09 153.83, 0 32 M0 306 C-2.05 244.73, -1.78 184.19, 0 32 M0 32 C0.24 9.22, 9.48 -0.12, 32 0 M0 32 C-2.06 11.88, 10.86 1.11, 32 0" stroke="#000000" stroke-width="1" fill="none"></path></g><g stroke-linecap="round" transform="translate(41 95) rotate(0 119 41)"><path d="M20.5 0 M20.5 0 C68.66 -1.57, 117.69 0.17, 217.5 0 M20.5 0 C75.95 -0.29, 132.47 -1, 217.5 0 M217.5 0 C231.04 -1.79, 239.06 7, 238 20.5 M217.5 0 C232.28 1.43, 236.05 4.57, 238 20.5 M238 20.5 C236.01 34.85, 239.54 49.82, 238 61.5 M238 20.5 C238.64 35.98, 238.72 50.75, 238 61.5 M238 61.5 C237.38 76.89, 229.23 82.5, 217.5 82 M238 61.5 C237.87 76.96, 232.51 82.14, 217.5 82 M217.5 82 C161.66 84.45, 103.75 81.35, 20.5 82 M217.5 82 C169.16 81.68, 119.36 80.07, 20.5 82 M20.5 82 C8.43 82.04, 1.42 76.74, 0 61.5 M20.5 82 C8.27 82.18, 0.4 76.75, 0 61.5 M0 61.5 C0.33 45.48, 0.3 30.23, 0 20.5 M0 61.5 C-0.26 48.51, -0.19 37.01, 0 20.5 M0 20.5 C0.35 5.48, 7.02 1.64, 20.5 0 M0 20.5 C2.07 5.31, 5.32 -0.75, 20.5 0" stroke="#000000" stroke-width="1" fill="none"></path></g><g transform="translate(83 128) rotate(0 68.6875 12)"><text x="0" y="0" font-family="Virgil, Segoe UI Emoji" font-size="20px" fill="#000000" text-anchor="start" style="white-space: pre;" direction="ltr" dominant-baseline="text-before-edge">searchByName</text></g><g stroke-linecap="round"><g transform="translate(289 135) rotate(0 58.45545535731128 -0.45742198321038074)"><path d="M-1.02 -0.61 C18.15 -1.1, 96 -2.5, 115.83 -2.6 M0.65 1.69 C20.09 1.31, 98.43 -0.58, 117.93 -1.38" stroke="#000000" stroke-width="1" fill="none"></path></g><g transform="translate(289 135) rotate(0 58.45545535731128 -0.45742198321038074)"><path d="M89.06 7.81 C99.35 7.43, 112 1.95, 116.05 0.22 M90.7 9.83 C98.57 6.86, 107.55 1.89, 117.29 -1.41" stroke="#000000" stroke-width="1" fill="none"></path></g><g transform="translate(289 135) rotate(0 58.45545535731128 -0.45742198321038074)"><path d="M88.42 -12.71 C99 -5.48, 111.89 -3.37, 116.05 0.22 M90.06 -10.68 C98.27 -7.46, 107.44 -6.24, 117.29 -1.41" stroke="#000000" stroke-width="1" fill="none"></path></g></g><mask></mask><g transform="translate(417 122) rotate(0 122.91666412353516 12)"><text x="0" y="0" font-family="Virgil, Segoe UI Emoji" font-size="20px" fill="#000000" text-anchor="start" style="white-space: pre;" direction="ltr" dominant-baseline="text-before-edge">Component searchByName</text></g><g transform="translate(61 199) rotate(0 200.8645782470703 36)"><text x="0" y="0" font-family="Virgil, Segoe UI Emoji" font-size="20px" fill="#000000" text-anchor="start" style="white-space: pre;" direction="ltr" dominant-baseline="text-before-edge">for 0 bis ?</text><text x="0" y="24" font-family="Virgil, Segoe UI Emoji" font-size="20px" fill="#000000" text-anchor="start" style="white-space: pre;" direction="ltr" dominant-baseline="text-before-edge">onClick + 1</text><text x="0" y="48" font-family="Virgil, Segoe UI Emoji" font-size="20px" fill="#000000" text-anchor="start" style="white-space: pre;" direction="ltr" dominant-baseline="text-before-edge">onClickCounter.map(render searchByName)</text></g><g transform="translate(141 10) rotate(0 162.8958282470703 12)"><text x="0" y="0" font-family="Virgil, Segoe UI Emoji" font-size="20px" fill="#000000" text-anchor="start" style="white-space: pre;" direction="ltr" dominant-baseline="text-before-edge">Gelöst: pro Klick eine neue Karte</text></g><g transform="translate(49 410) rotate(0 318.8645935058594 24)"><text x="0" y="0" font-family="Virgil, Segoe UI Emoji" font-size="20px" fill="#000000" text-anchor="start" style="white-space: pre;" direction="ltr" dominant-baseline="text-before-edge">Nur einmal Show weather button?</text><text x="0" y="24" font-family="Virgil, Segoe UI Emoji" font-size="20px" fill="#000000" text-anchor="start" style="white-space: pre;" direction="ltr" dominant-baseline="text-before-edge">country und city useState in Komponente, da mehrfach notwendig</text></g><g transform="translate(144 495) rotate(0 31.625 12)"><text x="0" y="0" font-family="Virgil, Segoe UI Emoji" font-size="20px" fill="#000000" text-anchor="start" style="white-space: pre;" direction="ltr" dominant-baseline="text-before-edge">Result</text></g><g stroke-linecap="round" transform="translate(48 543) rotate(0 253 166)"><path d="M32 0 M32 0 C157.22 -1.9, 283.73 -0.77, 474 0 M32 0 C169.13 2.18, 305.98 1.39, 474 0 M474 0 C494.88 1.01, 507.32 11.64, 506 32 M474 0 C493.71 -2.06, 504.57 12.39, 506 32 M506 32 C505.46 91.3, 502.59 150.26, 506 300 M506 32 C507.96 125.03, 507.19 217.16, 506 300 M506 300 C507.16 322.83, 493.64 330.6, 474 332 M506 300 C507.85 322.01, 495.85 331.42, 474 332 M474 332 C375.93 329.4, 279.43 329.77, 32 332 M474 332 C368.98 333.8, 263.1 333.85, 32 332 M32 332 C12.45 332.83, -0.86 320.63, 0 300 M32 332 C9.99 332.65, -0.46 322.79, 0 300 M0 300 C2.56 244.84, 2.16 193.79, 0 32 M0 300 C0.51 194.71, 0.97 90.32, 0 32 M0 32 C-0.87 8.87, 9.83 -1.92, 32 0 M0 32 C1.69 12.37, 8.85 1.03, 32 0" stroke="#000000" stroke-width="1" fill="none"></path></g><g stroke-linecap="round" transform="translate(84 579) rotate(0 79.5 71.5)"><path d="M32 0 M32 0 C68.39 1.47, 104.11 -0.64, 127 0 M32 0 C66.13 -1.02, 100.4 -1.36, 127 0 M127 0 C148.81 1.3, 159.26 12.18, 159 32 M127 0 C150.11 1.53, 159.56 12.24, 159 32 M159 32 C157.98 50.35, 157.63 66.81, 159 111 M159 32 C159.46 54.65, 158.86 77.37, 159 111 M159 111 C157.11 131.32, 148.6 141.2, 127 143 M159 111 C159.02 131.65, 146.17 145.09, 127 143 M127 143 C91.75 141.4, 54.8 143.94, 32 143 M127 143 C97.15 141.52, 68.24 142.23, 32 143 M32 143 C9.65 144.17, 0.34 132.02, 0 111 M32 143 C8.74 140.73, -0.04 131.58, 0 111 M0 111 C-0.56 81.1, -1.15 53.08, 0 32 M0 111 C-0.61 88.51, 0.57 67.16, 0 32 M0 32 C0.63 12.57, 11.91 0.25, 32 0 M0 32 C1.17 10.84, 11.78 0.02, 32 0" stroke="#000000" stroke-width="1" fill="none"></path></g><g stroke-linecap="round" transform="translate(272 586) rotate(0 73 65)"><path d="M32 0 M32 0 C57.11 -1.89, 85.23 1.38, 114 0 M32 0 C60.92 -0.93, 91.9 0.13, 114 0 M114 0 C134.01 -1.62, 144.65 9.24, 146 32 M114 0 C134.39 0, 144.83 12.01, 146 32 M146 32 C143.92 52.9, 145.24 75.3, 146 98 M146 32 C145.52 55.88, 146.22 80.2, 146 98 M146 98 C146.11 117.88, 134.21 129.52, 114 130 M146 98 C147.41 120.85, 136.06 132.19, 114 130 M114 130 C84.45 131.39, 54.62 130.71, 32 130 M114 130 C85.53 130.31, 58.33 130.31, 32 130 M32 130 C10.17 130.11, 0.44 117.64, 0 98 M32 130 C11.8 129.23, 1.26 119.2, 0 98 M0 98 C0.47 75.89, 0.44 56.61, 0 32 M0 98 C-0.32 75.63, 0.25 53.31, 0 32 M0 32 C2 9.07, 11.07 0.83, 32 0 M0 32 C-2.28 11.72, 9.46 -0.66, 32 0" stroke="#000000" stroke-width="1" fill="none"></path></g><g transform="translate(116 603) rotate(0 23.09375 12)"><text x="0" y="0" font-family="Virgil, Segoe UI Emoji" font-size="20px" fill="#000000" text-anchor="start" style="white-space: pre;" direction="ltr" dominant-baseline="text-before-edge">Card</text></g><g transform="translate(311 615) rotate(0 23.09375 12)"><text x="0" y="0" font-family="Virgil, Segoe UI Emoji" font-size="20px" fill="#000000" text-anchor="start" style="white-space: pre;" direction="ltr" dominant-baseline="text-before-edge">Card</text></g><g transform="translate(71 923) rotate(0 315.6041564941406 36)"><text x="0" y="0" font-family="Virgil, Segoe UI Emoji" font-size="20px" fill="#000000" text-anchor="start" style="white-space: pre;" direction="ltr" dominant-baseline="text-before-edge">- custom Hook für api Fetch, da 2x mit unterschiedlichen Daten</text><text x="0" y="24" font-family="Virgil, Segoe UI Emoji" font-size="20px" fill="#000000" text-anchor="start" style="white-space: pre;" direction="ltr" dominant-baseline="text-before-edge">- country, city in einzelnen Komponenten</text><text x="0" y="48" font-family="Virgil, Segoe UI Emoji" font-size="20px" fill="#000000" text-anchor="start" style="white-space: pre;" direction="ltr" dominant-baseline="text-before-edge">async function ... fetch ... url: muss aus Komponente kommen</text></g></svg>