<svg width="327.83233642578125px" height="120.8px" xmlns="http://www.w3.org/2000/svg" viewBox="86.08383178710938 14.600000000000001 327.83233642578125 120.8" style="background:#444" preserveAspectRatio="xMidYMid"><defs><filter id="editing-crystal" x="-100%" y="-100%" width="300%" height="300%"><feMorphology operator="dilate" radius="2" in="SourceGraphic" result="border"></feMorphology><feFlood flood-color="#fff" result="black"></feFlood><feMorphology operator="dilate" radius="2" in="SourceGraphic" result="erode"></feMorphology><feGaussianBlur in="erode" stdDeviation="4" result="blur"></feGaussianBlur><feOffset in="blur" dx="2" dy="2" result="offset"></feOffset><feComposite operator="atop" in="offset" in2="black" result="merge"></feComposite><feComposite operator="in" in="merge" in2="SourceGraphic" result="inner-shadow"></feComposite><feGaussianBlur in="SourceGraphic" stdDeviation="2.5" result="shadow1"></feGaussianBlur><feOffset in="shadow1" dx="0" dy="5" result="shadow"></feOffset><feSpecularLighting in="SourceGraphic" result="specular" surfaceScale="1.5" specularConstant="100" specularExponent="10" lighting-color="#fff"><fePointLight x="250" y="-300" z="-400"></fePointLight></feSpecularLighting><feGaussianBlur in="specular" stdDeviation="1" result="specular2"></feGaussianBlur><feComposite operator="in" in="specular2" in2="SourceAlpha" result="specular3"></feComposite><feMerge result="merge"><feMergeNode in="border"></feMergeNode><feMergeNode in="inner-shadow"></feMergeNode><feMergeNode in="specular3"></feMergeNode></feMerge><feComponentTransfer in="merge" result="final"><feFuncA type="linear" slope="0.9" intercept="0"></feFuncA></feComponentTransfer><feMerge><feMergeNode in="shadow"></feMergeNode><feMergeNode in="final"></feMergeNode></feMerge></filter></defs><g filter="url(#editing-crystal)"><g transform="translate(136.45389795303345, 99)"><path d="M2.69-39.68L2.69-39.68L2.69-39.68Q3.58-41.47 5.54-42.46L5.54-42.46L5.54-42.46Q7.49-43.46 10.18-43.46L10.18-43.46L10.18-43.46Q14.40-43.46 16.93-40.42L16.93-40.42L16.93-40.42Q19.46-37.38 19.46-30.72L19.46-30.72L19.46-7.87L34.11-42.18L41.66-42.18L43.39-9.79L43.20-7.94L58.43-42.18L67.20-42.18L46.72 0L33.09 0L31.81-19.46L23.36 0L7.94 0L6.02-30.72L6.02-30.72Q5.82-34.18 4.90-36.45L4.90-36.45L4.90-36.45Q3.97-38.72 2.69-39.68ZM79.81-3.52L79.81-3.52L79.81-3.52Q77.82 1.28 71.49 1.28L71.49 1.28L71.49 1.28Q68.22 1.28 66.18-0.96L66.18-0.96L66.18-0.96Q64.45-2.94 64.45-4.93L64.45-4.93L64.45-4.93Q64.45-10.11 66.82-20.22L66.82-20.22L69.18-32.64L82.18-33.92L78.27-13.70L78.27-13.70Q77.18-8.96 77.18-7.30L77.18-7.30L77.18-7.30Q77.18-3.65 79.81-3.52ZM70.34-41.54L70.34-41.54L70.34-41.54Q70.34-44.03 72.42-45.38L72.42-45.38L72.42-45.38Q74.50-46.72 77.50-46.72L77.50-46.72L77.50-46.72Q80.51-46.72 82.34-45.38L82.34-45.38L82.34-45.38Q84.16-44.03 84.16-41.54L84.16-41.54L84.16-41.54Q84.16-39.04 82.14-37.76L82.14-37.76L82.14-37.76Q80.13-36.48 77.12-36.48L77.12-36.48L77.12-36.48Q74.11-36.48 72.22-37.76L72.22-37.76L72.22-37.76Q70.34-39.04 70.34-41.54ZM112.32 1.28L112.32 1.28L112.32 1.28Q104.58 1.28 104.58-4.74L104.58-4.74L104.58-4.74Q104.64-6.40 105.15-9.22L105.15-9.22L106.30-15.10L106.30-15.10Q108.03-23.42 108.03-25.28L108.03-25.28L108.03-25.28Q108.03-28.99 105.86-28.99L105.86-28.99L105.86-28.99Q102.21-28.99 100.29-19.46L100.29-19.46L96.51 0L83.65 1.28L90.30-32.70L100.80-33.92L99.78-27.65L99.78-27.65Q102.78-33.92 112-33.92L112-33.92L112-33.92Q116.48-33.92 118.37-32.03L118.37-32.03L118.37-32.03Q120.26-30.14 120.26-25.92L120.26-25.92L120.26-25.92Q120.26-21.95 118.21-12.67L118.21-12.67L118.21-12.67Q117.25-8.51 117.25-6.94L117.25-6.94L117.25-6.94Q117.25-5.38 118.11-4.48L118.11-4.48L118.11-4.48Q118.98-3.58 120.26-3.46L120.26-3.46L120.26-3.46Q119.62-1.28 117.41 0L117.41 0L117.41 0Q115.20 1.28 112.32 1.28ZM145.54-33.92L145.54-33.92L145.54-33.92Q147.84-33.92 149.63-33.41L149.63-33.41L149.63-33.41Q149.70-33.66 149.82-34.37L149.82-34.37L150.14-36.35L150.14-36.35Q150.40-37.63 150.78-39.74L150.78-39.74L151.81-44.80L164.54-46.08L157.44-8.96L157.44-8.96Q157.38-8.58 157.38-7.94L157.38-7.94L157.38-6.91L157.38-6.91Q157.38-5.50 158.08-4.45L158.08-4.45L158.08-4.45Q158.78-3.39 159.94-3.39L159.94-3.39L159.94-3.39Q158.66-0.38 154.75 0.90L154.75 0.90L154.75 0.90Q153.41 1.28 151.52 1.28L151.52 1.28L151.52 1.28Q149.63 1.28 147.90 0.29L147.90 0.29L147.90 0.29Q146.18-0.70 145.66-2.37L145.66-2.37L145.66-2.37Q144.64-0.70 142.59 0.29L142.59 0.29L142.59 0.29Q140.54 1.28 137.57 1.28L137.57 1.28L137.57 1.28Q134.59 1.28 132.13 0.51L132.13 0.51L132.13 0.51Q129.66-0.26 128.13-1.92L128.13-1.92L128.13-1.92Q125.31-5.18 125.31-12.61L125.31-12.61L125.31-12.61Q125.31-22.21 130.94-28.03L130.94-28.03L130.94-28.03Q136.58-33.92 145.54-33.92ZM145.09-30.08L145.09-30.08L145.09-30.08Q142.72-30.08 141.44-27.52L141.44-27.52L141.44-27.52Q140.16-24.96 138.85-18.62L138.85-18.62L138.85-18.62Q137.54-12.29 137.54-6.59L137.54-6.59L137.54-6.59Q137.54-2.69 139.84-2.69L139.84-2.69L139.84-2.69Q141.89-2.69 143.33-4.74L143.33-4.74L143.33-4.74Q144.77-6.78 145.34-10.18L145.34-10.18L148.80-28.93L148.80-28.93Q147.46-30.08 145.09-30.08ZM168.16-1.92L168.16-1.92L168.16-1.92Q166.66-3.58 165.98-6.21L165.98-6.21L165.98-6.21Q165.31-8.83 165.31-13.12L165.31-13.12L165.31-13.12Q165.31-17.41 166.78-21.31L166.78-21.31L166.78-21.31Q168.26-25.22 170.94-28.03L170.94-28.03L170.94-28.03Q176.45-33.92 185.54-33.92L185.54-33.92L185.54-33.92Q188.80-33.92 191.17-32.83L191.17-32.83L202.11-33.92L197.38-8.96L197.38-8.96Q197.18-8.19 197.18-6.78L197.18-6.78L197.18-6.78Q197.18-5.38 198.05-4.48L198.05-4.48L198.05-4.48Q198.91-3.58 200.19-3.46L200.19-3.46L200.19-3.46Q199.55-1.28 197.22 0L197.22 0L197.22 0Q194.88 1.28 192.26 1.28L192.26 1.28L192.26 1.28Q189.63 1.28 187.87 0.29L187.87 0.29L187.87 0.29Q186.11-0.70 185.60-2.37L185.60-2.37L185.60-2.37Q184.58-0.77 182.40 0.26L182.40 0.26L182.40 0.26Q180.22 1.28 177.31 1.28L177.31 1.28L177.31 1.28Q174.40 1.28 172.03 0.51L172.03 0.51L172.03 0.51Q169.66-0.26 168.16-1.92ZM181.66-27.90L181.66-27.90L181.66-27.90Q180.93-26.75 180.29-24.80L180.29-24.80L180.29-24.80Q179.65-22.85 178.59-17.63L178.59-17.63L178.59-17.63Q177.54-12.42 177.54-8.70L177.54-8.70L177.54-8.70Q177.54-4.99 178.11-3.90L178.11-3.90L178.11-3.90Q178.69-2.82 179.71-2.82L179.71-2.82L179.71-2.82Q181.76-2.82 183.26-4.77L183.26-4.77L183.26-4.77Q184.77-6.72 185.34-10.18L185.34-10.18L188.74-28.93L188.74-28.93Q187.39-30.08 185.82-30.08L185.82-30.08L185.82-30.08Q184.26-30.08 183.33-29.57L183.33-29.57L183.33-29.57Q182.40-29.06 181.66-27.90ZM220.86-3.52L220.86-3.52L220.86-3.52Q218.88 1.28 212.54 1.28L212.54 1.28L212.54 1.28Q209.34 1.28 207.30-0.96L207.30-0.96L207.30-0.96Q205.63-2.82 205.63-4.93L205.63-4.93L205.63-4.93Q205.63-9.73 207.87-20.22L207.87-20.22L212.54-44.80L225.54-46.08L219.33-13.70L219.33-13.70Q218.24-8.96 218.24-7.30L218.24-7.30L218.24-7.30Q218.24-3.65 220.86-3.52Z" fill="#000000" stroke="#88e0eb" stroke-width="1.5"></path></g></g><style>text {
  font-size: 64px;
  font-family: Arial Black;
  dominant-baseline: central;
  text-anchor: middle;
}</style></svg>